Coordinates
version=1
nRows=52
nColumns=19
inDegrees=yes

Units are S.I. units (second, meters, Newtons, ...)
Angles are in degrees.

endheader
time	1_Force_X	1_Force_Y	1_Force_Z	1_Moment_X	1_Moment_Y	1_Moment_Z	1_COP_X	1_COP_Y	1_COP_Z	2_Force_X	2_Force_Y	2_Force_Z	2_Moment_X	2_Moment_Y	2_Moment_Z	2_COP_X	2_COP_Y	2_COP_Z
1.1225	39.199	-7.165	6.996	-1.138	1.039	0.236	215.805	0.000	-114.550	-19.743	62.010	13.625	-8.311	3.570	6.232	115.464	0.000	123.451
1.1250	38.497	-6.284	7.044	-0.959	1.058	0.393	215.844	0.000	-101.787	-19.699	62.523	13.493	-8.223	3.486	6.372	116.716	0.000	121.130
1.1275	38.144	-6.112	6.779	-1.026	1.002	0.411	216.349	0.000	-117.554	-19.609	63.210	13.190	-8.199	3.532	6.337	114.834	0.000	119.651
1.1300	37.922	-6.113	6.647	-1.027	0.984	0.341	226.142	0.000	-118.631	-19.394	62.178	13.538	-8.224	3.486	6.268	115.460	0.000	121.780
1.1325	37.570	-6.104	6.651	-0.981	1.049	0.428	209.555	0.000	-111.261	-19.523	63.035	13.233	-8.223	3.440	6.389	115.922	0.000	120.335
1.1350	37.268	-6.798	6.917	-1.026	0.956	0.446	183.569	0.000	-104.820	-19.303	63.552	13.060	-8.155	3.504	6.372	114.546	0.000	118.403
1.1375	37.268	-6.627	6.871	-1.093	0.937	0.464	185.625	0.000	-117.876	-19.524	62.521	13.364	-8.223	3.477	6.268	114.926	0.000	121.236
1.1400	37.090	-7.667	6.874	-1.182	0.984	0.358	173.228	0.000	-113.471	-19.353	61.324	13.973	-8.179	3.561	6.250	116.742	0.000	122.427
1.1425	36.786	-8.707	6.832	-1.226	0.918	0.411	144.944	0.000	-105.284	-19.439	62.356	13.888	-8.199	3.588	6.336	116.268	0.000	120.777
1.1450	36.345	-7.139	6.788	-1.114	0.919	0.516	159.125	0.000	-113.011	-19.610	62.693	13.233	-8.245	3.505	6.337	115.781	0.000	121.334
1.1475	35.730	-7.483	6.526	-0.961	0.816	0.499	150.416	0.000	-88.857	-19.610	63.037	13.232	-8.178	3.486	6.354	115.428	0.000	119.618
1.1500	35.115	-7.654	6.219	-0.961	0.751	0.552	136.511	0.000	-88.723	-19.569	63.726	13.584	-8.244	3.467	6.511	116.604	0.000	119.091
1.1525	34.848	-7.318	5.508	-1.095	0.612	0.588	136.210	0.000	-115.538	-19.348	62.694	13.278	-8.244	3.523	6.302	115.033	0.000	121.293
1.1550	34.410	-7.833	5.557	-0.985	0.584	0.552	129.237	0.000	-93.604	-19.784	63.380	13.145	-8.244	3.486	6.424	116.026	0.000	120.067
1.1575	34.361	-7.829	5.427	-0.940	0.686	0.499	135.816	0.000	-88.630	-19.567	63.208	13.321	-8.245	3.467	6.354	115.085	0.000	120.279
1.1600	34.188	-9.579	5.115	-1.319	0.518	0.482	112.025	0.000	-113.491	-19.089	61.837	13.713	-8.135	3.533	6.250	115.584	0.000	120.884
1.1625	32.204	-9.050	4.283	-1.055	0.323	0.395	118.233	0.000	-95.197	-19.352	61.838	13.887	-8.157	3.524	6.198	114.935	0.000	121.118
1.1650	31.762	-9.406	3.663	-1.212	0.192	0.360	115.305	0.000	-111.257	-19.613	61.838	13.755	-8.245	3.561	6.250	115.968	0.000	122.630
1.1675	31.934	-8.542	3.484	-1.124	0.173	0.273	138.070	0.000	-113.168	-19.306	61.151	13.492	-8.156	3.579	6.371	119.028	0.000	122.767
1.1700	30.921	-7.141	3.708	-1.101	0.193	0.326	151.247	0.000	-130.680	-19.221	62.180	13.757	-8.157	3.496	6.302	115.885	0.000	120.542
1.1725	30.040	-8.515	3.630	-1.100	0.304	0.342	120.279	0.000	-109.844	-19.745	62.354	13.887	-8.244	3.533	6.302	115.944	0.000	121.513
1.1750	29.649	-8.517	3.364	-0.990	0.118	0.448	105.725	0.000	-98.397	-19.787	63.548	13.364	-8.269	3.347	6.303	113.817	0.000	119.988
1.1775	29.425	-8.345	3.187	-1.189	0.165	0.431	108.784	0.000	-125.207	-19.048	61.322	13.842	-8.092	3.496	6.337	117.940	0.000	121.106
1.1800	28.369	-9.203	3.239	-1.080	0.127	0.273	110.648	0.000	-101.413	-19.393	62.351	13.451	-8.201	3.514	6.233	114.582	0.000	121.140
1.1825	28.281	-9.894	3.683	-1.213	0.202	0.184	111.455	0.000	-105.720	-19.878	62.009	14.060	-8.202	3.477	6.146	114.167	0.000	121.385
1.1850	29.077	-8.329	4.120	-1.121	0.286	0.413	109.277	0.000	-112.224	-19.219	62.347	13.320	-8.224	3.412	6.424	117.534	0.000	121.624
1.1875	29.339	-9.025	3.944	-1.187	0.342	0.412	102.239	0.000	-111.759	-18.958	61.662	13.496	-8.224	3.487	6.320	116.946	0.000	122.840
1.1900	29.345	-9.535	5.185	-1.187	0.426	0.306	107.907	0.000	-99.880	-19.790	61.664	13.972	-8.247	3.459	6.215	115.868	0.000	122.858
1.1925	29.252	-9.178	5.276	-1.295	0.631	0.358	105.974	0.000	-115.034	-19.050	61.664	14.194	-8.159	3.422	6.181	114.757	0.000	121.271
1.1950	29.391	-7.800	5.753	-1.319	0.408	0.395	120.759	0.000	-135.734	-19.524	61.832	13.231	-8.247	3.449	6.337	117.330	0.000	123.068
1.1975	30.182	-9.008	6.420	-1.362	0.668	0.271	122.380	0.000	-118.886	-18.790	61.663	14.283	-8.271	3.376	6.285	116.259	0.000	123.008
1.2000	31.106	-9.006	6.331	-1.138	0.798	0.358	117.406	0.000	-94.536	-20.049	61.489	13.490	-8.270	3.441	6.198	116.113	0.000	123.942
1.2025	31.115	-8.305	6.594	-1.091	0.762	0.744	80.838	0.000	-95.438	-19.045	62.173	13.234	-8.248	3.375	6.425	117.737	0.000	122.400
1.2050	31.557	-8.125	7.656	-1.003	0.873	0.603	102.422	0.000	-80.710	-19.872	63.546	12.969	-8.159	3.347	6.320	114.157	0.000	118.538
1.2075	35.647	-9.857	8.669	-1.038	1.618	0.688	94.754	0.000	-65.476	-19.877	62.347	13.578	-8.182	3.357	6.337	116.625	0.000	120.752
1.2100	39.060	-7.603	12.670	-1.125	1.786	0.863	119.999	0.000	-72.348	-19.175	62.690	13.322	-8.268	3.412	6.338	115.475	0.000	121.656
1.2125	35.087	-7.607	9.409	-1.283	1.312	1.005	77.553	0.000	-112.596	-18.744	63.723	14.070	-8.269	3.338	6.390	114.114	0.000	119.139
1.2150	36.405	-12.676	8.700	-1.534	1.132	0.461	94.328	0.000	-89.940	-20.877	63.552	13.359	-8.312	3.449	6.285	114.315	0.000	120.651
1.2175	35.570	-9.880	9.763	-1.334	1.198	0.444	118.829	0.000	-90.201	-17.227	62.357	15.514	-8.070	3.366	6.372	115.203	0.000	117.514
1.2200	34.238	-9.535	7.115	-1.310	1.097	0.725	87.292	0.000	-103.553	-20.350	60.111	12.519	-8.050	3.450	6.424	122.760	0.000	123.875
1.2225	33.220	-9.004	6.858	-0.957	1.077	0.514	110.686	0.000	-71.761	-19.487	62.691	14.152	-8.315	3.320	6.129	112.376	0.000	121.795
1.2250	31.869	-8.634	8.455	-0.891	1.022	0.585	100.175	0.000	-58.755	-21.881	63.038	13.308	-8.268	3.468	6.250	115.422	0.000	120.986
1.2275	33.078	-7.808	5.216	-1.069	0.910	0.568	119.862	0.000	-106.622	-17.078	64.232	13.076	-8.267	3.337	6.425	112.575	0.000	118.884
1.2300	32.800	-8.714	5.995	-1.147	-0.031	0.607	101.533	0.000	-100.515	-18.876	62.524	14.020	-8.113	3.412	6.546	118.889	0.000	118.987
1.2325	30.124	-8.850	3.369	-1.183	0.566	0.534	94.500	0.000	-116.488	-19.788	63.201	13.408	-8.338	3.255	6.216	113.075	0.000	121.710
1.2350	32.083	-9.067	4.010	-1.037	-0.096	0.555	99.798	0.000	-94.397	-20.921	63.723	13.492	-8.401	3.421	6.181	112.406	0.000	121.629
1.2375	34.838	-8.238	1.872	-1.125	-0.013	0.590	120.685	0.000	-126.277	-18.527	60.285	14.019	-8.273	3.349	6.286	118.715	0.000	126.067
1.2400	34.092	-8.543	3.657	-0.921	0.425	0.500	122.961	0.000	-88.401	-18.212	62.345	12.932	-8.091	3.430	6.338	115.408	0.000	119.781
1.2425	31.818	-9.551	4.732	-0.831	0.388	0.692	79.074	0.000	-64.570	-20.182	64.410	13.624	-8.114	3.337	6.389	113.924	0.000	115.774
1.2450	34.225	-9.083	2.766	-1.078	0.192	0.589	106.575	0.000	-104.920	-19.564	63.720	12.975	-8.355	3.449	6.198	111.712	0.000	121.297
1.2475	32.558	-7.160	3.034	-0.989	0.044	0.748	102.349	0.000	-119.021	-18.963	61.660	13.845	-8.338	3.329	6.442	118.935	0.000	124.427
1.2500	31.456	-7.854	3.303	-1.126	-0.068	0.450	124.898	0.000	-124.327	-19.438	62.860	13.320	-8.226	3.319	6.355	115.638	0.000	120.656
